<?xml version="1.0" encoding="UTF-8" standalone="no"?>
<!-- Created with Inkscape (http://www.inkscape.org/) -->

<svg
   xmlns:dc="http://purl.org/dc/elements/1.1/"
   xmlns:cc="http://creativecommons.org/ns#"
   xmlns:rdf="http://www.w3.org/1999/02/22-rdf-syntax-ns#"
   xmlns:svg="http://www.w3.org/2000/svg"
   xmlns="http://www.w3.org/2000/svg"
   xmlns:sodipodi="http://sodipodi.sourceforge.net/DTD/sodipodi-0.dtd"
   xmlns:inkscape="http://www.inkscape.org/namespaces/inkscape"
   width="480"
   height="480"
   viewBox="0 0 127 127"
   version="1.1"
   id="svg8"
   sodipodi:docname="vanilla-manifesto-logo.svg"
   inkscape:export-filename="/Users/yuki.kokubun/Pictures/vanilla-manifesto-logo.png"
   inkscape:export-xdpi="90"
   inkscape:export-ydpi="90"
   inkscape:version="0.92.2 5c3e80d, 2017-08-06">
  <defs
     id="defs2" />
  <sodipodi:namedview
     id="base"
     pagecolor="#ffffff"
     bordercolor="#666666"
     borderopacity="1.0"
     inkscape:pageopacity="0.0"
     inkscape:pageshadow="2"
     inkscape:zoom="0.35355339"
     inkscape:cx="177.13736"
     inkscape:cy="-175.13367"
     inkscape:document-units="mm"
     inkscape:current-layer="layer1"
     showgrid="false"
     inkscape:snap-path-clip="true"
     gridtolerance="10"
     inkscape:showpageshadow="false"
     borderlayer="true"
     inkscape:snap-smooth-nodes="true"
     units="px"
     inkscape:window-width="1920"
     inkscape:window-height="1156"
     inkscape:window-x="1200"
     inkscape:window-y="0"
     inkscape:window-maximized="0">
    <inkscape:grid
       type="xygrid"
       id="grid3699"
       color="#3f3f00"
       opacity="0.03137255"
       empcolor="#3f3f00"
       empopacity="0.0627451"
       dotted="false" />
  </sodipodi:namedview>
  <metadata
     id="metadata5">
    <rdf:RDF>
      <cc:Work
         rdf:about="">
        <dc:format>image/svg+xml</dc:format>
        <dc:type
           rdf:resource="http://purl.org/dc/dcmitype/StillImage" />
        <dc:title></dc:title>
      </cc:Work>
    </rdf:RDF>
  </metadata>
  <g
     inkscape:label="レイヤー 1"
     inkscape:groupmode="layer"
     id="layer1"
     transform="translate(0,-169.99998)">
    <rect
       style="fill:#6e552b;fill-opacity:0.38345863;stroke:none;stroke-width:0.26458332"
       id="rect4537"
       width="126.99986"
       height="126.99997"
       x="0"
       y="169.99998" />
    <path
       style="fill:#ffffff;fill-opacity:0.55805209;stroke:none;stroke-width:0.26458332px;stroke-linecap:butt;stroke-linejoin:miter;stroke-opacity:1"
       d="m 63.432481,183.75831 c 0,0 11.827756,21.52517 10.650773,38.91252 -1.176983,17.38738 -10.650773,19.29578 -10.650773,19.29578 0,0 -9.473791,-1.9084 -10.650774,-19.29578 -1.176983,-17.38735 10.650774,-38.91252 10.650774,-38.91252 z"
       id="path3707"
       inkscape:connector-curvature="0"
       sodipodi:nodetypes="cscsc" />
    <path
       sodipodi:nodetypes="cscsc"
       inkscape:connector-curvature="0"
       id="path3722"
       d="m 13.090067,212.86244 c 0,0 24.555228,0.51948 39.024617,10.23243 14.469421,9.71299 11.385249,18.87174 11.385249,18.87174 0,0 -6.389618,7.25035 -22.036022,-0.42404 -15.646372,-7.67439 -28.373844,-28.68013 -28.373844,-28.68013 z"
       style="fill:#ffffff;fill-opacity:0.55805209;stroke:none;stroke-width:0.26458332px;stroke-linecap:butt;stroke-linejoin:miter;stroke-opacity:1" />
    <path
       style="fill:#ffffff;fill-opacity:0.55805209;stroke:none;stroke-width:0.26458332px;stroke-linecap:butt;stroke-linejoin:miter;stroke-opacity:1"
       d="m 113.9098,212.86244 c 0,0 -24.555229,0.51948 -39.024619,10.23243 -14.469421,9.71299 -11.385248,18.87174 -11.385248,18.87174 0,0 6.389617,7.25035 22.036021,-0.42404 15.646376,-7.67439 28.373846,-28.68013 28.373846,-28.68013 z"
       id="path3724"
       inkscape:connector-curvature="0"
       sodipodi:nodetypes="cscsc" />
    <path
       style="fill:#ffffff;fill-opacity:0.55805209;stroke:none;stroke-width:0.26458332px;stroke-linecap:butt;stroke-linejoin:miter;stroke-opacity:1"
       d="m 13.090067,271.07078 c 0,0 24.555228,-0.51948 39.024617,-10.23243 14.469421,-9.71299 11.385249,-18.87174 11.385249,-18.87174 0,0 -6.389618,-7.25035 -22.036022,0.42404 -15.646372,7.67439 -28.373844,28.68013 -28.373844,28.68013 z"
       id="path3726"
       inkscape:connector-curvature="0"
       sodipodi:nodetypes="cscsc" />
    <path
       sodipodi:nodetypes="cscsc"
       inkscape:connector-curvature="0"
       id="path3728"
       d="m 113.90979,271.07078 c 0,0 -24.555219,-0.51948 -39.024609,-10.23243 -14.469421,-9.71299 -11.385248,-18.87174 -11.385248,-18.87174 0,0 6.389617,-7.25035 22.036021,0.42404 15.646376,7.67439 28.373836,28.68013 28.373836,28.68013 z"
       style="fill:#ffffff;fill-opacity:0.55805209;stroke:none;stroke-width:0.26458332px;stroke-linecap:butt;stroke-linejoin:miter;stroke-opacity:1" />
    <path
       sodipodi:nodetypes="cscsc"
       inkscape:connector-curvature="0"
       id="path3730"
       d="m 63.432481,283.74085 c 0,0 11.827756,-10.94187 10.650773,-28.32922 -1.176983,-17.38738 -10.650773,-19.29578 -10.650773,-19.29578 0,0 -9.473791,1.9084 -10.650774,19.29578 -1.176983,17.38735 10.650774,28.32922 10.650774,28.32922 z"
       style="fill:#ffffff;fill-opacity:0.55805209;stroke:none;stroke-width:0.26458332px;stroke-linecap:butt;stroke-linejoin:miter;stroke-opacity:1" />
  </g>
</svg>
